{"glyphs":{"0":{"ha":918,"x_min":0,"x_max":0,"o":"m 56 486 b 460 990 56 803 221 990 b 864 486 707 990 864 803 b 460 -18 864 169 707 -18 b 56 486 221 -18 56 169 m 281 486 b 460 183 281 303 353 183 b 639 486 567 183 639 303 b 460 789 639 669 567 789 b 281 486 353 789 281 669 "},"1":{"ha":706,"x_min":0,"x_max":0,"o":"m 94 897 l 561 990 l 561 0 l 335 0 l 335 751 l 94 692 "},"2":{"ha":910,"x_min":0,"x_max":0,"o":"m 461 449 b 586 667 539 532 586 589 b 453 790 586 729 542 790 b 306 614 361 790 306 718 l 75 614 b 460 992 75 821 207 992 b 828 683 700 992 828 831 b 689 418 828 579 772 490 l 461 214 l 851 214 l 851 0 l 28 0 "},"3":{"ha":860,"x_min":0,"x_max":0,"o":"m 440 -22 b 67 308 206 -22 67 136 l 297 308 b 449 167 297 213 368 167 b 589 289 529 167 589 206 b 381 425 589 369 522 425 l 381 575 b 561 706 489 575 561 636 b 451 803 561 764 525 803 b 324 688 379 803 324 754 l 108 688 b 450 990 108 860 243 990 b 793 722 668 990 793 872 b 625 511 793 622 728 551 b 821 265 746 471 821 392 b 440 -22 821 96 678 -22 "},"4":{"ha":968,"x_min":0,"x_max":0,"o":"m 583 972 l 757 972 l 757 372 l 910 372 l 910 172 l 757 172 l 757 0 l 514 0 l 514 172 l 19 172 m 540 342 l 540 632 l 331 342 "},"5":{"ha":894,"x_min":0,"x_max":0,"o":"m 839 311 b 447 -18 839 82 635 -18 b 58 108 268 -18 147 40 l 150 301 b 396 197 228 235 324 197 b 583 336 513 197 583 242 b 396 472 583 431 490 472 b 122 411 321 472 221 461 l 258 972 l 819 972 l 819 769 l 431 769 l 375 594 b 544 629 426 619 483 629 b 839 311 699 629 839 513 "},"6":{"ha":928,"x_min":0,"x_max":0,"o":"m 760 968 l 469 644 b 558 657 494 654 522 657 b 860 342 704 657 860 539 b 464 -22 860 103 681 -22 b 69 342 247 -22 69 103 b 182 611 69 447 118 533 l 463 968 m 300 342 b 464 178 300 242 371 178 b 628 342 557 178 628 242 b 464 507 628 442 557 507 b 300 342 371 507 300 442 "},"7":{"ha":836,"x_min":0,"x_max":0,"o":"m 42 972 l 833 972 l 364 0 l 111 0 l 490 753 l 42 753 "},"8":{"ha":869,"x_min":0,"x_max":0,"o":"m 72 264 b 253 515 72 393 153 474 b 107 738 168 556 107 629 b 435 994 107 901 257 994 b 764 738 613 994 764 901 b 617 515 764 629 701 556 b 797 264 717 474 797 393 b 435 -22 797 86 626 -22 b 72 264 243 -22 72 86 m 328 715 b 435 603 328 649 374 603 b 543 715 496 603 543 649 b 435 826 543 782 499 826 b 328 715 371 826 328 782 m 306 300 b 435 168 306 214 363 168 b 565 300 507 168 565 214 b 435 428 565 372 507 428 b 306 300 363 428 306 372 "},"9":{"ha":928,"x_min":0,"x_max":0,"o":"m 169 4 l 460 328 b 369 315 435 318 406 315 b 69 631 224 315 69 433 b 464 994 69 869 247 994 b 860 631 681 994 860 869 b 747 361 860 525 811 439 l 467 4 m 628 631 b 464 794 628 731 557 794 b 300 631 371 794 300 731 b 464 465 300 531 371 465 b 628 631 557 465 628 531 "}," ":{"ha":417,"x_min":0,"x_max":0,"o":""},"!":{"ha":476,"x_min":0,"x_max":0,"o":"m 368 972 l 324 321 l 154 321 l 108 972 m 108 86 b 239 206 108 156 164 206 b 369 86 314 206 369 156 b 239 -33 369 17 314 -33 b 108 86 164 -33 108 17 "},"'":{"ha":425,"x_min":0,"x_max":0,"o":"m 368 972 l 222 531 l 86 531 l 147 972 "},"\"":{"ha":718,"x_min":0,"x_max":0,"o":"m 368 972 l 222 531 l 86 531 l 147 972 m 661 972 l 515 531 l 378 531 l 439 972 "},"#":{"ha":925,"x_min":0,"x_max":0,"o":"m 49 406 l 185 406 l 225 572 l 104 572 l 104 739 l 265 739 l 322 972 l 504 972 l 449 739 l 601 739 l 658 972 l 839 972 l 782 739 l 878 739 l 878 572 l 742 572 l 701 406 l 822 406 l 822 239 l 661 239 l 603 0 l 422 0 l 479 239 l 326 239 l 268 0 l 86 0 l 144 239 l 49 239 m 526 397 l 571 581 l 401 581 l 356 397 "},"$":{"ha":863,"x_min":0,"x_max":0,"o":"m 622 681 b 453 814 581 761 525 814 b 344 725 375 814 344 775 b 565 575 344 643 447 619 b 814 272 696 528 814 440 b 529 -8 814 114 706 15 l 535 -156 l 364 -156 l 369 -7 b 47 233 222 18 100 118 l 211 347 b 447 172 278 231 344 172 b 567 269 528 172 567 206 b 365 419 567 347 479 375 b 103 725 268 456 103 536 b 369 981 103 849 208 954 l 364 1136 l 536 1136 l 531 979 b 800 781 674 956 750 869 l 622 681 "},"%":{"ha":1274,"x_min":0,"x_max":0,"o":"m 31 742 b 294 999 31 883 144 999 b 557 742 444 999 557 883 b 294 486 557 600 444 486 b 31 742 144 486 31 600 m 1119 972 l 372 0 l 157 0 l 903 972 m 204 742 b 294 650 204 692 242 650 b 383 742 347 650 383 692 b 294 835 383 792 347 835 b 204 742 242 835 204 792 m 719 231 b 982 488 719 372 832 488 b 1244 231 1132 488 1244 372 b 982 -25 1244 89 1132 -25 b 719 231 832 -25 719 89 m 892 231 b 982 139 892 181 929 139 b 1072 231 1035 139 1072 181 b 982 322 1072 281 1035 322 b 892 231 929 322 892 281 "},"&":{"ha":1043,"x_min":0,"x_max":0,"o":"m 708 79 b 394 -18 618 21 514 -18 b 56 261 208 -18 56 88 b 290 538 56 419 182 492 b 175 756 232 601 175 667 b 474 996 175 878 288 996 b 754 761 654 996 754 878 b 554 504 754 644 685 590 l 725 319 b 844 472 768 365 808 417 l 983 365 b 843 193 944 308 897 247 l 1021 0 l 781 0 m 378 742 b 456 611 378 700 408 661 b 564 742 526 653 564 700 b 472 829 564 786 528 829 b 378 742 408 829 378 786 m 275 279 b 422 158 275 213 328 158 b 590 208 479 158 536 176 l 399 418 b 275 279 332 386 275 351 "},"(":{"ha":472,"x_min":0,"x_max":0,"o":"m 453 1083 b 301 403 356 875 301 639 b 453 -278 301 167 356 -69 l 264 -278 b 94 403 153 -69 94 167 b 264 1083 94 639 153 875 "},")":{"ha":472,"x_min":0,"x_max":0,"o":"m 19 -278 b 172 403 117 -69 172 167 b 19 1083 172 639 117 875 l 210 1083 b 379 403 321 875 379 639 b 210 -278 379 167 321 -69 "},"*":{"ha":822,"x_min":0,"x_max":0,"o":"m 142 438 l 308 613 l 71 656 l 131 839 l 347 733 l 315 972 l 507 972 l 475 733 l 692 839 l 751 656 l 514 613 l 681 438 l 525 325 l 411 538 l 297 325 "},"+":{"ha":935,"x_min":0,"x_max":0,"o":"m 90 474 l 360 474 l 360 750 l 576 750 l 576 474 l 846 474 l 846 272 l 576 272 l 576 -3 l 360 -3 l 360 272 l 90 272 "},",":{"ha":447,"x_min":0,"x_max":0,"o":"m 376 108 l 203 -239 l 44 -207 l 167 153 "},"-":{"ha":307,"x_min":0,"x_max":0,"o":"m 7 419 l 303 419 l 303 239 l 7 239 "},".":{"ha":446,"x_min":0,"x_max":0,"o":"m 94 94 b 225 222 94 164 150 222 b 354 94 300 222 354 164 b 225 -33 354 25 300 -33 b 94 94 150 -33 94 25 "},"/":{"ha":843,"x_min":0,"x_max":0,"o":"m 824 972 l 231 -208 l 21 -208 l 622 972 "},":":{"ha":446,"x_min":0,"x_max":0,"o":"m 94 614 b 225 742 94 683 150 742 b 354 614 300 742 354 683 b 225 486 354 544 300 486 b 94 614 150 486 94 544 m 94 94 b 225 222 94 164 150 222 b 354 94 300 222 354 164 b 225 -33 354 25 300 -33 b 94 94 150 -33 94 25 "},";":{"ha":544,"x_min":0,"x_max":0,"o":"m 165 606 b 296 733 165 675 221 733 b 426 606 371 733 426 675 b 296 478 426 536 371 478 b 165 606 221 478 165 536 m 407 108 l 233 -239 l 75 -207 l 197 153 "},"<":{"ha":889,"x_min":0,"x_max":0,"o":"m 799 206 l 799 0 l 90 297 l 90 436 l 799 733 l 799 528 l 389 372 "},"=":{"ha":868,"x_min":0,"x_max":0,"o":"m 78 585 l 792 585 l 792 403 l 78 403 m 78 299 l 792 299 l 792 117 l 78 117 "},">":{"ha":889,"x_min":0,"x_max":0,"o":"m 90 528 l 90 733 l 799 436 l 799 297 l 90 0 l 90 206 l 500 361 "},"?":{"ha":869,"x_min":0,"x_max":0,"o":"m 583 694 b 428 822 583 775 528 822 b 208 701 343 822 260 779 l 67 818 b 442 999 164 932 276 999 b 796 694 624 999 796 886 b 497 397 796 525 644 422 l 492 279 l 322 279 l 294 526 l 339 526 b 583 694 506 526 583 622 m 278 81 b 407 196 278 142 332 196 b 539 81 482 196 539 142 b 407 -33 539 19 482 -33 b 278 81 332 -33 278 19 "},"@":{"ha":1069,"x_min":0,"x_max":0,"o":"m 28 444 b 576 1003 28 757 257 1003 b 1042 542 874 1003 1042 771 b 776 200 1042 294 907 200 b 624 318 700 200 636 250 b 456 214 583 250 522 214 b 272 433 344 214 272 296 b 500 736 272 626 390 736 b 629 658 554 736 600 706 l 636 722 l 797 722 l 761 428 b 758 389 760 418 758 400 b 794 333 758 356 767 333 b 889 542 828 333 889 375 b 576 867 889 718 785 867 b 181 444 332 867 181 690 b 525 103 181 236 297 103 b 781 164 622 103 700 122 l 833 39 b 507 -36 750 -8 649 -36 b 28 444 193 -36 28 168 m 439 444 b 501 350 439 383 461 350 b 604 506 549 350 604 410 b 539 600 604 571 578 600 b 439 444 483 600 439 531 "},"A":{"ha":1018,"x_min":0,"x_max":0,"o":"m 664 189 l 356 189 l 264 0 l -1 0 l 510 1033 l 1022 0 l 756 0 m 401 367 l 618 367 l 510 615 "}}}
